<svg id="Capa_1" data-name="Capa 1" xmlns="http://www.w3.org/2000/svg" viewBox="0 0 139.15 150.23"><defs><style>.cls-1{fill:#f2f4f8;}.cls-2{fill:#fff;}.cls-3,.cls-6{fill:none;stroke:#4a25aa;stroke-linecap:round;}.cls-3{stroke-linejoin:round;}.cls-4{fill:#ede9f7;}.cls-5{fill:#a592d5;}.cls-6{stroke-miterlimit:10;}</style></defs><circle class="cls-1" cx="64.77" cy="63.19" r="63.02"/><path class="cls-2" d="M129.8,91.5a12.78,12.78,0,0,1,.93-8l7.45-15.73c1-2.5.64-4.38-1.11-5.71-2.2-1.8-4.42-.86-5.93.44a80,80,0,0,1-7.33,5.73l-.26-1-.82-2.77c-1.51-4.75-5.64-24-7-31-1.32-5.32-3.22-6-4.69-5.88s-2.87,1-2.79,5.48c0,1.63-.21,2.38-.13,6.19-.5-6.16-.53-8.32-.75-9.48-.39-3.21-1.49-5.13-4.31-4.88s-3,2.15-3.18,4.33c-.09.86.06,9.74.24,18-1.54-3.83-3.1-8.23-4.28-11.1-1.85-4.61-3.05-5.34-5.09-4.89s-2.49,3.51-2,5.8c1,4.33,4.65,23.56,4,23.76-1,.34-5.92-19.4-10.63-16.44-2.79.94-1.57,6.28-.12,13a163.38,163.38,0,0,1,3.26,20.79,81.11,81.11,0,0,0,.08,13.26c.66,6.59,2.7,11.65,3.34,16,.88,1.23,10.48.71,21.41-.49,11.74-1.3,22.79-3.86,21.83-5.39Z"/><path class="cls-3" d="M121.44,69.66c3.33-1.76,9.7-7.21,9.7-7.21,1.47-1.27,3.76-2.15,5.93-.44,1.72,1.27,1.94,3.46.93,5.87l-7.57,16.21a11.06,11.06,0,0,0-.63,7.41l2.23,9.94"/><path class="cls-3" d="M124,68.06c-1.94-2.52-6.49-29-8.42-35.38-1.34-5.12-3-5.34-4.49-5.19s-2.8,1-2.68,5.3c.17,5.38.6,13.17.6,13.17"/><path class="cls-3" d="M93,62.13c-1.59-4.52-4.4-11.47-5.28-13.41-1.84-4.79-3.33-5-5.13-4.56S80,45.87,80.65,49.78c.88,5.31,5.55,25.26,4.69,32.53a48.81,48.81,0,0,0,1.09,14.9c1,4.32,2.59,8.54,2.54,13.06"/><path class="cls-3" d="M100.46,48.05s-2-6.1-4.65-12.24c-1.86-4.43-3-5.12-5-4.67S88.23,33,88.7,36.71c.77,5.33,2.82,9.19,4.44,26.89"/><path class="cls-3" d="M100.94,60.81s-1.17-30.07-1-31.68c.09-2.1.51-4.07,3.18-4.33s3.88,1.59,4.28,4.69c.48,2.5,2.68,28,2.68,28"/><path class="cls-3" d="M89.66,66.13s6.77-5.94,23.62-7.06"/><path class="cls-3" d="M103.7,88.88S103.78,78,116,73.43"/><path class="cls-4" d="M137.57,128c-5.68-25-2.83-18.06-4.5-25.6a.94.94,0,0,0-1.26-.67C113.33,108.58,94,107.79,89,107.44a1,1,0,0,0-1,1.1C93.6,141.85,94.28,149,94.28,149,112.19,148.16,126.78,141.44,137.57,128Z"/><path class="cls-3" d="M137.57,128c-2.65-12.26-2.83-18.06-4.5-25.6a.94.94,0,0,0-1.26-.67C113.33,108.58,94,107.79,89,107.44a1,1,0,0,0-1,1.1C93.6,141.85,94.28,149,94.28,149"/><path class="cls-2" d="M75.88,114c1.11-11.19,1.84-21.17,2-29a32.58,32.58,0,0,1,.42-4.41c.59-3.62,1.41-7.65,2.08-11.19,0,0,4.06-23.45,1.1-25.73-1.48-1.15-2.5-1.3-3.6-.89-2.42,1.07-8,16.59-8,16.59,1.94-7.87,4.08-20.46,3.91-22.62-.32-4.07-5.86-4-8.07,1.6L60.12,50.73s5.31-16.15,6-18.78a3.86,3.86,0,0,0-2.84-4.71c-1.34-.24-2.51.07-3.91,1.69a1.86,1.86,0,0,0-1.1-.43c-3.3.18-3.81,1.92-8.49,10A124.92,124.92,0,0,0,42.25,54.7h0c-1.34-1.73-3.19-3.14-5.41-2.23-4.07,1.69-2.28,9.72-2.65,14l-.1,1.92a75.65,75.65,0,0,1-1,14.14c-.31,2.06-1.29,9.13-3.24,18.41C29.91,101,41.07,111.1,75.88,114Z"/><path class="cls-4" d="M69.63,41.68A3.59,3.59,0,0,0,73,39.27c.88-2.09-.57-5-2.23-5.06-2.28-.15-4.67,2.39-4.16,5.2C66.89,40.72,68.69,41.61,69.63,41.68Z"/><path class="cls-4" d="M54.55,34.25c.71.42,1.86.1,2.88-.94,1.33-1.35,1.66-3.89.76-4.41-1.22-.7-3.58.6-4.41,2.86A2.27,2.27,0,0,0,54.55,34.25Z"/><path class="cls-4" d="M59.84,35.19A3.77,3.77,0,0,0,64,33.67c1.57-1.93,1.11-5.39-.49-6-2.19-.85-5.4,1.11-5.84,4.23C57.47,33.35,58.94,34.83,59.84,35.19Z"/><path class="cls-4" d="M78.56,49.7a3.29,3.29,0,0,0,3-2.34c.72-1.94-.72-4.5-2.24-4.53-2.09,0-4.18,2.36-3.6,4.91C76,48.93,77.69,49.67,78.56,49.7Z"/><path class="cls-4" d="M43.36,57.62c-2-.35-3.22.69-2.78,1.6.35.71,1.14,0,2.37.5s2.17.82,2.59-.09S45,57.9,43.36,57.62Z"/><path class="cls-4" d="M52.06,58c-2.37-.62-3.76.43-3.43,1.34s1.63,0,3.09.79,2.4,1.2,2.92.21C55,59.65,54,58.54,52.06,58Z"/><path class="cls-4" d="M62.89,61.46c-1.68-1.08-3.23-.59-3.17.42.05.78,1.18.64,2.31,1.38s1.56,1.4,2.11.9C64.88,63.49,64.26,62.33,62.89,61.46Z"/><path class="cls-4" d="M73.24,66.87c-1.61-1-3.1-.59-3,.38,0,.75,1,.39,1.9,1.32s1.61,1.53,2.32.89S74.54,67.71,73.24,66.87Z"/><path class="cls-3" d="M60.12,50.73s5.31-16.15,6-18.78a3.86,3.86,0,0,0-2.84-4.71c-1.7-.31-3.13.28-5.1,3.3A137,137,0,0,0,46.2,56.26"/><path class="cls-3" d="M70,59.33c1.94-7.87,4.08-20.46,3.91-22.62-.32-4.07-5.86-4-8.07,1.6L56.74,58.14"/><path class="cls-3" d="M75.88,114c1.11-11.19,1.84-21.17,2-29a32.58,32.58,0,0,1,.42-4.41c.59-3.62,1.41-7.65,2.08-11.19,0,0,4.06-23.45,1.1-25.73-1.48-1.15-2.5-1.3-3.6-.89-2.71,1-9.83,21.85-9.83,21.85"/><path class="cls-3" d="M29.91,101c1.95-9.28,2.93-16.35,3.24-18.41a75.65,75.65,0,0,0,1-14.14"/><path class="cls-3" d="M34.2,66.48c.37-4.29-1.42-12.32,2.65-14,2.22-.91,4.07.5,5.41,2.23"/><path class="cls-3" d="M38.61,65.29c1.28-4.9,6.44-18.76,11.13-26.82s5.19-9.79,8.49-10"/><path class="cls-5" d="M24.32,130.18l3.87-28.45A1.16,1.16,0,0,1,30,101c16.7,10.71,39.33,10.47,45.1,10.21a1.15,1.15,0,0,1,1.19,1.31c-4.47,31.84-4.33,37.08-4.21,37.11h0C52.17,149.39,35.55,142.63,24.32,130.18Z"/><path class="cls-6" d="M24.32,130.18l3.87-28.45A1.16,1.16,0,0,1,30,101c16.7,10.71,39.33,10.47,45.1,10.21a1.16,1.16,0,0,1,1.19,1.31c-3.08,23.47-4.21,37.11-4.21,37.11"/></svg>