<svg id="Capa_1" data-name="Capa 1" xmlns="http://www.w3.org/2000/svg" viewBox="0 0 139.15 150.23"><defs><style>.cls-1{fill:#f2f4f8;}.cls-2{fill:#fff;}.cls-3{fill:none;stroke-linecap:round;stroke-linejoin:round;}.cls-3,.cls-4{stroke:#4a25aa;}.cls-4{fill:#a592d5;stroke-miterlimit:10;}.cls-5{fill:#c9bee6;}</style></defs><circle class="cls-1" cx="64.77" cy="63.19" r="63.02"/><path class="cls-2" d="M117.05,99.19C109.36,95,96.9,89.1,88.47,87,81.26,83.36,68,84.59,64.22,85.1s-8.68,1.45-9.67,3c-2.55,4.44,4.12,6.47,4.08,7.24-7.88-.8-18.59-1.81-19.56-.84-2.84-1.23-7.07-4.37-9.34-.13S34,102.24,34,102.24c-5.17,5.05,2.4,8.33,3,9.78-4.09,4.4,8.51,12.34,28.44,22.16C80,140.24,93,139.29,101.05,149.67l36.77-35.95S127.33,104.22,117.05,99.19Z"/><path class="cls-3" d="M33.46,102.16c-1.22-1-2.08-1.84-2.51-2.16A4.21,4.21,0,0,1,30,94.25c1.11-1.41,2.7-2.21,6.12-.85S52.8,101.7,60,102.57"/><path class="cls-3" d="M37.22,111.84c-2.29-1.68-3.89-3.1-4.46-4.42-1.69-4,1.86-7.13,7-4.76l19.47,7.08"/><path class="cls-3" d="M39.54,94.15c4.09.09,10.14.85,18.14,1.28"/><path class="cls-3" d="M77.94,101.08C74.22,99.33,53.41,96.45,53.75,90c.19-3.65,8.08-4.69,12.42-4.85,8.35-.29,13.57-1,18.9.81,4.63,1.56,13,4.22,17.5,6.23,5.2,2.33,22.17,10.53,28,15.55s7.32,6.14,7.32,6.14"/><path class="cls-3" d="M60.24,98.42c-.35,3.72-.8,15,1.21,22.48"/><path class="cls-3" d="M97.42,111.9c-16.14.21-19.81,9.08-25.82,9.32"/><path class="cls-3" d="M101.09,149.8c-5.3-7.27-13.82-8.61-19.63-10.46C70.56,136.83,61,133,53.11,127.87c-5.06-2.87-13.61-6.65-16.42-12.3a3.18,3.18,0,0,1,1.53-4.41c2.69-1,14.69,3.6,21.62,4.12"/><path class="cls-4" d="M64.73,24.64c-6.42,4.61-17.15,10.42-23.4,11.89A6.09,6.09,0,0,0,36.67,43c1.87,23.67,11.87,38.89,28.21,47.52a6.12,6.12,0,0,0,5.73,0C87,81.84,97,66.63,98.82,43a6.08,6.08,0,0,0-4.68-6.42c-6.21-1.44-16.83-7.22-23.35-11.93A5.18,5.18,0,0,0,64.73,24.64Z"/><path class="cls-3" d="M60,80a40.37,40.37,0,0,0,5.82,3.73,4.62,4.62,0,0,0,4.28,0c9.54-5,16.19-13.07,19.32-24.75"/><path class="cls-5" d="M79,51.1H75.52a3.29,3.29,0,0,1-3.29-3.29V44.3A3.29,3.29,0,0,0,68.94,41H66.6a3.29,3.29,0,0,0-3.29,3.29v3.51A3.28,3.28,0,0,1,60,51.1H56.51a3.29,3.29,0,0,0-3.29,3.29v2.34A3.29,3.29,0,0,0,56.51,60H60a3.28,3.28,0,0,1,3.28,3.29v3.51a3.29,3.29,0,0,0,3.29,3.29h2.34a3.29,3.29,0,0,0,3.29-3.29V63.31A3.29,3.29,0,0,1,75.52,60H79a3.29,3.29,0,0,0,3.29-3.29V54.39A3.29,3.29,0,0,0,79,51.1Z"/></svg>